<svg xmlns="http://www.w3.org/2000/svg" version="1.1" xmlns:xlink="http://www.w3.org/1999/xlink" xmlns:svgjs="http://svgjs.dev/svgjs" width="1000" height="1000" preserveAspectRatio="none" viewBox="0 0 1000 1000">
    <g mask="url(&quot;#SvgjsMask1062&quot;)" fill="none">
        <rect width="1000" height="1000" x="0" y="0" fill="#0e2a47"></rect>
        <path d="M0,359.146C90.808,366.418,180.2,447.207,263.027,409.277C344.684,371.883,362.431,263.895,392.672,179.327C420.681,101.002,438.999,20.799,431.571,-62.051C423.843,-148.247,413.177,-244.249,349.445,-302.796C286.732,-360.408,189.048,-342.13,106.031,-361.108C29.169,-378.679,-46.535,-437.658,-120.45,-410.214C-194.343,-382.778,-201.547,-278.186,-259.931,-225.231C-330.637,-161.101,-465.1,-161.94,-494.359,-71.078C-522.532,16.409,-436.126,98.635,-389.782,178.007C-347.825,249.865,-312.738,334.146,-237.278,369.213C-164.004,403.265,-80.542,352.696,0,359.146" fill="#0b2037"></path>
        <path d="M1000 1397.075C1082.596 1410.798 1172.421 1422.833 1245.65 1382.239 1320.217 1340.903 1362.863 1259.211 1392.746 1179.3609999999999 1421.259 1103.172 1420.688 1021.682 1410.8029999999999 940.935 1400.739 858.725 1382.1680000000001 777.761 1335.229 709.5219999999999 1284.658 636.002 1219.226 569.675 1135.0529999999999 540.05 1048.772 509.683 954.383 520.015 866.241 544.46 777.137 569.172 672 597.244 630.635 679.943 589.019 763.144 667.582 858.5989999999999 662.6469999999999 951.496 658.375 1031.918 574.789 1105.794 604.028 1180.834 633.098 1255.442 731.472 1270.1109999999999 801.7470000000001 1308.488 866.587 1343.897 927.121 1384.967 1000 1397.075" fill="#113457"></path>
    </g>
    <defs>
        <mask id="SvgjsMask1062">
            <rect width="1000" height="1000" fill="#ffffff"></rect>
        </mask>
    </defs>
</svg>